<svg width="22" height="22" viewBox="0 0 22 22" fill="none" xmlns="http://www.w3.org/2000/svg">
<path d="M15.5848 4.69644L15.5265 7.82364C15.5182 8.2527 15.7931 8.82205 16.1429 9.07784L18.2087 10.629C19.5331 11.6192 19.3165 12.8321 17.7339 13.3272L15.0434 14.1606C14.5936 14.3008 14.1188 14.7877 14.0022 15.2415L13.3608 17.6673C12.8527 19.5816 11.5866 19.7714 10.537 18.0882L9.07098 15.7366C8.80443 15.3075 8.17138 14.9857 7.6716 15.0105L4.88951 15.1507C2.89872 15.2497 2.33229 14.1111 3.63172 12.6094L5.28098 10.7116C5.58918 10.3568 5.73078 9.69668 5.58918 9.25111L4.74792 6.58596C4.25647 5.01822 5.13941 4.15186 6.71372 4.66343L9.17099 5.4638C9.58747 5.59582 10.2122 5.50505 10.562 5.24926L13.1276 3.41749C14.5103 2.42734 15.6181 3.00494 15.5848 4.69644Z" stroke="#444E72" stroke-width="1.5" stroke-linecap="round" stroke-linejoin="round"/>
<path d="M19.4331 19.4332L16.9092 16.9331" stroke="#444E72" stroke-width="1.5" stroke-linecap="round" stroke-linejoin="round"/>
</svg>
