<svg width="24" height="24" viewBox="0 0 24 24" fill="none" xmlns="http://www.w3.org/2000/svg">
<path d="M8.52 21.2761C7.24 21.2761 6.152 21.0281 5.256 20.5321C4.368 20.0361 3.652 19.3721 3.108 18.5401C2.564 17.7001 2.164 16.7641 1.908 15.7321C1.66 14.7001 1.536 13.6561 1.536 12.6001C1.536 11.5681 1.664 10.5401 1.92 9.51611C2.176 8.48411 2.58 7.54811 3.132 6.70811C3.692 5.86011 4.416 5.18411 5.304 4.68011C6.192 4.16811 7.264 3.91211 8.52 3.91211C9.568 3.91211 10.46 4.07211 11.196 4.39211C11.932 4.70411 12.536 5.10811 13.008 5.60411C13.488 6.10011 13.856 6.61611 14.112 7.15211L11.928 8.23211C11.664 7.83211 11.38 7.48011 11.076 7.17611C10.772 6.86411 10.416 6.62411 10.008 6.45611C9.6 6.28011 9.104 6.19211 8.52 6.19211C7.688 6.19211 6.984 6.38811 6.408 6.78011C5.832 7.16411 5.372 7.67211 5.028 8.30411C4.684 8.93611 4.436 9.62811 4.284 10.3801C4.132 11.1321 4.056 11.8721 4.056 12.6001C4.056 13.3841 4.14 14.1561 4.308 14.9161C4.476 15.6681 4.744 16.3521 5.112 16.9681C5.48 17.5761 5.944 18.0641 6.504 18.4321C7.064 18.7921 7.736 18.9721 8.52 18.9721C9.384 18.9721 10.084 18.7761 10.62 18.3841C11.156 17.9841 11.616 17.4681 12 16.8361L14.232 17.6641C13.92 18.3441 13.508 18.9561 12.996 19.5001C12.484 20.0441 11.86 20.4761 11.124 20.7961C10.388 21.1161 9.52 21.2761 8.52 21.2761Z" fill="#444E72"/>
<path d="M19.69 9.86414C19.114 9.86414 18.589 9.72914 18.115 9.45914C17.647 9.18914 17.272 8.82314 16.99 8.36114C16.714 7.89914 16.576 7.38014 16.576 6.80414C16.576 6.21614 16.714 5.69114 16.99 5.22914C17.272 4.76714 17.647 4.40414 18.115 4.14014C18.589 3.87614 19.114 3.74414 19.69 3.74414C20.266 3.74414 20.788 3.87614 21.256 4.14014C21.724 4.40414 22.096 4.76714 22.372 5.22914C22.648 5.69114 22.786 6.21614 22.786 6.80414C22.786 7.38014 22.648 7.89914 22.372 8.36114C22.096 8.82314 21.724 9.18914 21.256 9.45914C20.788 9.72914 20.266 9.86414 19.69 9.86414ZM19.69 8.38814C20.122 8.38814 20.479 8.23814 20.761 7.93814C21.043 7.63214 21.184 7.25414 21.184 6.80414C21.184 6.33614 21.043 5.95514 20.761 5.66114C20.479 5.36714 20.122 5.22014 19.69 5.22014C19.27 5.22014 18.91 5.36714 18.61 5.66114C18.31 5.95514 18.16 6.33614 18.16 6.80414C18.16 7.25414 18.31 7.63214 18.61 7.93814C18.91 8.23814 19.27 8.38814 19.69 8.38814Z" fill="#444E72"/>
</svg>
